<?xml version="1.0" encoding="utf-8"?>
<!-- Generator: Adobe Illustrator 19.0.0, SVG Export Plug-In . SVG Version: 6.00 Build 0)  -->
<svg version="1.1" id="Layer_1" xmlns="http://www.w3.org/2000/svg" xmlns:xlink="http://www.w3.org/1999/xlink" x="0px" y="0px"
	 viewBox="0 0 425.2 425.2" style="enable-background:new 0 0 425.2 425.2;" xml:space="preserve">
<style type="text/css">
	.st0{fill:#55576F;}
	.st1{fill:url(#XMLID_37_);}
	.st2{fill:#00A99A;}
</style>
<g id="XMLID_35_">
	<rect id="XMLID_318_" x="336.7" y="287.7" class="st0" width="10.1" height="81.9"/>
	<rect id="XMLID_317_" x="145" y="312.7" class="st0" width="9.7" height="56.8"/>
	<path id="XMLID_314_" class="st0" d="M211.9,330c0-12.1-7.1-18.3-24.1-18.3c-18.1,0-25.8,7.3-25.8,29.3c0,21.5,7.5,29.6,26.8,29.6
		c6.4,0,16.5-0.9,21.8-3.1l-1-6.6c-5.8,0.8-13.5,1.4-19.5,1.4c-11.5,0-16.7-3-17.7-16.4h26.1C207.8,345.9,212,340,211.9,330z
		 M172.2,338.3c0.3-14.2,4.3-18.3,16-18.3c10,0,13.7,2.9,13.8,10c0,4.1-1,8.3-6.1,8.3H172.2z"/>
	<path id="XMLID_313_" class="st0" d="M236.2,295.5h-9.8v17.2l-10.1,0.9v6.8h10.1v34.9c0,9.8,5,15.2,14.4,15.2c2.8,0,9-0.5,12.7-1.5
		l-1.2-7.5h-8.5c-5.5,0-7.6-2.1-7.6-7.5v-33.6h17.9v-7.7h-17.9V295.5z"/>
	<path id="XMLID_312_" class="st0" d="M108,361.7h-3.2l-23.4-74H70.9l26.4,79.1c0.5,1.7,2,2.8,3.8,2.8h10.6c1.8,0,3.3-1,3.8-2.8
		l26.4-79.1h-10.5L108,361.7z"/>
	<path id="XMLID_310_" class="st0" d="M320.8,369.5h10.5l-26.4-79.1c-0.5-1.7-2-2.8-3.8-2.8h-10.6c-1.8,0-3.3,1-3.8,2.8l-26.4,79.1
		h10.5l23.4-74h3.2L320.8,369.5z"/>
	<linearGradient id="XMLID_37_" gradientUnits="userSpaceOnUse" x1="320.3541" y1="221.6164" x2="161.3282" y2="114.6083">
		<stop  offset="0" style="stop-color:#C7D92D"/>
		<stop  offset="1" style="stop-color:#00AA9B"/>
	</linearGradient>
	<path id="XMLID_303_" class="st1" d="M352.1,160.8C339.7,98.5,281.8,55.3,220.9,54.6c-51.7,0.5-102.7,26.4-121.2,77
		c-8.8,24-7.5,50.2,9,70.6c13.9,17.2,35.6,28.1,57.9,26.4c12.1-0.9,23.2-5.4,34.8-8.4c15.5-4,31.8-3.5,46.9,2.3
		c9.2,3.5,14.8,9.5,21.8,15.9c7,6.4,16.1,10.5,25.5,11.9c17.6,2.6,34.5-6.1,44.8-20C354.9,210.8,356.7,183.9,352.1,160.8z
		 M136.2,90.7c22.5-18,52.3-25.2,80.7-25.4c45.2,0.5,87.7,25.1,111.8,63.2c10.5,16.6,7.2,36.3-6.2,51.9c5.4-10.8,7.5-24.9-3.7-37.3
		c-11-12.3-29.5-9.9-36.8-7.7c-1.2-1.3-2.9-2.2-4.8-2.3c-3.9-0.2-7.2,2.8-7.4,6.6c0,0.2,0,0.4,0,0.6c-6.5,3.2-12.6,7.1-18,10.8
		c-0.4-0.9-0.8-1.8-1.2-2.7c-6.1-13.5-12.4-27.5-21.4-36.1c-21.3-20.6-46.6-18.1-63.4-7.1c-10.9,7.1-23.2,21.6-21.1,41.9
		c2.1,20.3,21.5,39.3,41.9,37.9c-6.4,2.2-12.8,3.8-18.9,4.7c-8.4,1.2-16.6,1.1-24.3-0.4c-0.1-4.7-3.8-8.5-8.5-8.8
		c-3-0.2-5.7,1.1-7.5,3.3c-16.6-7.4-23.5-14.5-24.6-31.5S118,105.3,136.2,90.7z M283.8,139.4c5.2-1.2,10.4-1.4,15.4,0.1
		c8.5,2.5,14.9,7.6,18.6,14.7c3.5,6.7,4.2,14.9,2,21.5c-2.2,6.3-6.5,11.3-12.4,14.1c-7.3,3.5-16.7,3.3-27.1-0.6
		c-11.9-4.4-19.6-18.8-26.7-34.1c5.5-3.8,11.4-7.8,17.6-10.9c1.2,1.6,3.1,2.7,5.2,2.8c3.9,0.2,7.2-2.8,7.4-6.6
		C283.8,140,283.8,139.7,283.8,139.4z M248.2,153.5c-0.1,0.1-0.2,0.1-0.3,0.2c-3.6,2.5-7,4.9-10.1,6.8c-0.9,0.6-1.9,1.2-3,1.9
		c-17.3,11-51.8,32.9-73.4,0.7c-15.3-22.8-3.9-44.2,8.6-53.7c6.8-5.1,16.2-8.8,26.6-8.2c9.5,0.5,19.8,4.5,29.7,14.1
		c8.4,8.1,14.5,21.7,20.4,34.8C247.2,151.3,247.7,152.4,248.2,153.5z M304.5,240.2c-8.8-0.2-17.8-3.4-24.8-8.7
		c-5.5-4.1-9.6-9.8-15.2-13.8c-18.3-12.8-47.3-9.1-67.9-3.3c-21.1,6-37.2,7.8-57.9-2.8c-14.4-7.3-26.3-19.6-32.2-34.5
		c1.9,2.1,7,7.1,19.1,12.8c0.3,4.5,3.9,8.2,8.5,8.4c2.7,0.1,5.2-0.9,6.9-2.7c0.1,0,0.3,0.1,0.4,0.1c4.7,1.1,22.2,4.3,39.7-1.8
		c27.3-9.6,58.2-29.2,59.2-29.8c3.1-1.9,6.4-4.2,9.9-6.7c5.1,11,11,21.2,18,28.6c14.1,14.8,31.5,14.1,43.9,10.2
		c14.4-4.4,27.6-22.6,31.4-37.3C352.5,194.6,346,241,304.5,240.2z"/>
	<circle id="XMLID_302_" class="st2" cx="295.8" cy="346.6" r="8.7"/>
</g>
</svg>
