<svg id="gradient" height="512" viewBox="0 0 512 512" width="512" xmlns="http://www.w3.org/2000/svg" xmlns:xlink="http://www.w3.org/1999/xlink"><linearGradient id="linear-gradient" gradientUnits="userSpaceOnUse" x1="75.878" x2="393.494" y1="460.42" y2="142.803"><stop offset="0" stop-color="#41dfd0"/><stop offset="1" stop-color="#ee83ef"/></linearGradient><path d="m274.8 408a8 8 0 0 1 -8 8h-16a8 8 0 1 1 0-16h16a8 8 0 0 1 8 8zm-64-8h-128a8 8 0 1 0 0 16h128a8 8 0 0 0 0-16zm-80-48h16a8 8 0 0 0 0-16h-16a8 8 0 1 0 0 16zm56 0h128a8 8 0 0 0 0-16h-128a8 8 0 1 0 0 16zm299.994 30.788a8 8 0 0 1 .534 7.436 65.5 65.5 0 0 1 -32.485 33.168l-8.9 4.122a96.8 96.8 0 0 1 -43.909 20.986l-3.334.644a7.993 7.993 0 0 1 -8.776-4.493l-38.839-83.851a40.07 40.07 0 0 1 -4.617 7.59 8 8 0 0 1 5.532 7.61v64a8 8 0 0 1 -8 8h-264a40 40 0 0 1 -13.2-77.751v-58.249a8 8 0 0 1 8-8h21.2v-117.826l-32-16.762v38.588h8a8 8 0 0 1 8 8v8a23.9 23.9 0 0 1 -6.131 16 23.9 23.9 0 0 1 6.131 16v24a8 8 0 0 1 -8 8h-32a8 8 0 0 1 -8-8v-24a23.9 23.9 0 0 1 6.131-16 23.9 23.9 0 0 1 -6.131-16v-8a8 8 0 0 1 8-8h8v-46.969l-3.712-1.944a8 8 0 0 1 .4-14.37l176-80a8 8 0 0 1 7.037.2l113.475 59.728a46 46 0 0 0 4.665-12.131 8 8 0 0 1 15.35-.867l49.841 142.271a22.977 22.977 0 0 1 13.484 28.78zm-438.794-158.788a8 8 0 0 0 16 0zm16 32a8 8 0 0 0 -16 0v16h16zm341.67 25.781a7.051 7.051 0 0 0 -5.928-12.8l-67.819 31.419a7.05 7.05 0 1 0 5.926 12.795zm-73.214.742 29.924-13.862-55.869-120.607a70.061 70.061 0 0 0 -29.924 13.861zm20.421-146.289c-.634.97-1.3 1.917-1.987 2.85a8.009 8.009 0 0 1 -1.329 1.743 62.548 62.548 0 0 1 -20.852 17.082l48.191 104.027 16.12-7.467c.368-.171.739-.33 1.111-.48zm-286.664 16.275 41.576 21.778.036.019 108.083 56.615 59.781-32.88-16.149-34.86a8 8 0 0 1 1.773-9.181 85.977 85.977 0 0 1 49.034-22.714 8.005 8.005 0 0 1 8.153 4.588l3.474 7.5a46.1 46.1 0 0 0 8.933-6.063l-107.165-56.411zm45.787 42.046v103.363a399.983 399.983 0 0 0 200.974 1.813c.094-.289.166-.582.272-.869a22.951 22.951 0 0 1 5.3-8.3l-36.116-77.968-62.575 34.416a8 8 0 0 1 -7.567.077zm-29.2 141.445h16a8 8 0 0 1 0 16h-16v16h232a23.978 23.978 0 0 0 19.349-38.17 22.946 22.946 0 0 1 -18.11-9.779c-.413-.022-.823-.051-1.239-.051h-19.266a415.951 415.951 0 0 1 -79.526 7.676 416.031 416.031 0 0 1 -79.922-7.754 8.062 8.062 0 0 1 -1.06.078h-52.226zm253.2 96v-16h-37.2a8 8 0 0 1 0-16h37.2v-16h-256a24 24 0 0 0 0 48zm95.733-13.624-49.975-107.885-29.925 13.863 49.956 107.84a80.811 80.811 0 0 0 29.944-13.818zm39.141-30.89-57.148-91.886c-.439.238-.873.485-1.33.7l-16.121 7.467 49.247 106.31 2.6-1.2a49.517 49.517 0 0 0 22.752-21.391z" fill="url(#linear-gradient)"/></svg>