<svg height="479pt" viewBox="-3 0 479 479.81788" width="479pt" xmlns="http://www.w3.org/2000/svg" xmlns:xlink="http://www.w3.org/1999/xlink"><linearGradient id="linear0" gradientUnits="userSpaceOnUse" x1=".416411" x2="472.416411" y1="239.897875" y2="239.897875"><stop offset="0" stop-color="#41dfd0"/><stop offset="1" stop-color="#ee83ef"/></linearGradient><path d="m240.417969 215.816406c17.671875 0 32-14.324218 32-32 0-17.671875-14.328125-32-32-32-17.675781 0-32 14.328125-32 32 0 17.675782 14.324219 32 32 32zm0-48c8.835937 0 16 7.164063 16 16 0 8.839844-7.164063 16-16 16-8.839844 0-16-7.160156-16-16 0-8.835937 7.160156-16 16-16zm0 128c17.671875 0 32-14.324218 32-32 0-17.671875-14.328125-32-32-32-17.675781 0-32 14.328125-32 32 0 17.675782 14.324219 32 32 32zm0-48c8.835937 0 16 7.164063 16 16 0 8.839844-7.164063 16-16 16-8.839844 0-16-7.160156-16-16 0-8.835937 7.160156-16 16-16zm0 128c17.671875 0 32-14.324218 32-32 0-17.671875-14.328125-32-32-32-17.675781 0-32 14.328125-32 32 0 17.675782 14.324219 32 32 32zm0-48c8.835937 0 16 7.164063 16 16 0 8.839844-7.164063 16-16 16-8.839844 0-16-7.160156-16-16 0-8.835937 7.160156-16 16-16zm-200 8v120c-.003907 3.527344 2.304687 6.636719 5.679687 7.660156 3.375 1.023438 7.019532-.285156 8.976563-3.21875l31.109375-46.671874 20.039062-13.351563c15.808594-10.582031 34.371094-16.289063 53.394532-16.417969 2.386718 5.808594 5.140624 11.457032 8.246093 16.914063-4.640625 16.261719-4.292969 33.539062 1 49.597656 1.078125 3.261719 4.117188 5.472656 7.554688 5.488281h128c3.441406.003906 6.5-2.203125 7.589843-5.46875 5.292969-16.0625 5.640626-33.339844 1-49.601562 3.109376-5.460938 5.863282-11.117188 8.25-16.929688 19.003907.125 37.558594 5.824219 53.359376 16.386719l20 13.351563 31.109374 46.671874c1.945313 2.957032 5.597657 4.289063 8.988282 3.273438 3.390625-1.019531 5.710937-4.144531 5.703125-7.683594v-120c0-13.253906-10.746094-24-24-24-13.257813 0-24 10.746094-24 24v6.035156l-63.753907-57.394531-16.246093-157.4375c0-.089843-.066407-.160156-.082031-.25-.015626-.085937 0-.160156 0-.246093-5.492188-32.804688-19.046876-63.730469-39.449219-90l-26.117188-33.601563c-1.578125-1.855469-3.886719-2.921875-6.320312-2.921875-2.433594 0-4.746094 1.066406-6.320313 2.921875l-26.121094 33.601563c-20.398437 26.269531-33.953124 57.195312-39.449218 90v.246093c0 .089844-.0625.160157-.078125.25l-16.3125 157.4375-63.75 57.394531v-6.035156c0-13.253906-10.746094-24-24-24-13.257813 0-24 10.746094-24 24zm384 93.601563-9.050781-13.601563h9.050781zm-16-93.601563c0-4.417968 3.582031-8 8-8s8 3.582032 8 8v8h-16zm0 24h16v40h-16zm-76.800781-47.199218-.457032-4.398438 61.257813 55.160156v29.488282l-8.914063-5.9375c-16.910156-11.296876-36.558594-17.820313-56.871094-18.878907 5.140626-18 6.832032-36.804687 4.984376-55.433593zm-33.226563 127.199218h-17.972656v-8c0-4.417968-3.582031-8-8-8s-8 3.582032-8 8v8h-16v-8c0-4.417968-3.582031-8-8-8s-8 3.582032-8 8v8h-16v-8c0-4.417968-3.582031-8-8-8s-8 3.582032-8 8v8h-17.976563c-2.476562-10.527344-2.421875-21.496094.167969-32h115.613281c2.589844 10.503906 2.644532 21.472656.167969 32zm-45.78125-393.503906 3.808594-4.894531 3.804687 4.894531c16.789063 21.648438 28.554688 46.753906 34.449219 73.503906h-76.511719c5.894532-26.75 17.660156-51.855468 34.449219-73.503906zm-32 0 19.808594-25.460938 5.863281 7.535157-6.304688 8.109375c-18.957031 24.464844-32.003906 52.980468-38.121093 83.320312h-15.695313c5.894532-26.75 17.660156-51.855468 34.449219-73.503906zm-55.394531 267.90625 18.402344-178.402344h113.597656l18.457031 178.402344c2.722656 26.878906-2.816406 53.949219-15.878906 77.597656h-99.375v-16h-16v16h-3.378907c-13.042968-23.652344-18.5625-50.722656-15.824218-77.597656zm-76.796875 49.160156 61.292969-55.199218-.453126 4.398437c-1.867187 18.632813-.1875 37.449219 4.941407 55.457031-20.304688 1.058594-39.953125 7.578125-56.863281 18.871094l-8.917969 5.960938zm-32-27.5625c0-4.417968 3.582031-8 8-8s8 3.582032 8 8v8h-16zm0 24h16v40h-16zm0 56h9.046875l-9.046875 13.601563zm144-120h-16v-16h16zm0 32h-16v-16h16zm0 32h-16v-16h16zm-192 40h16v48h-16zm0 64h16v16h-16zm464-88h-16v-32h16zm-16 16h16v48h-16zm-328-208h-16v-40h16zm-16 16h16v16h-16zm-32 40h-16v-64h16zm-16 16h16v16h-16zm312-16h-16v-72h16zm-16 24h16v16h-16zm64-128h-16v-24h16zm-16 16h16v56h-16zm-272 296h-16v-40h16zm-16 16h16v16h-16zm232-56v56h-16v-56zm-328-24h-16v-40h16zm432 72h16v24h-16zm-451.578125-416.796875c8.820312 4.421875 15.976562 11.566407 20.417968 20.375 1.351563 2.714844 4.125 4.429688 7.160157 4.429688 3.03125 0 5.804687-1.714844 7.160156-4.429688 4.4375-8.808593 11.597656-15.953125 20.414063-20.375 2.714843-1.355469 4.433593-4.128906 4.433593-7.160156 0-3.035156-1.71875-5.808594-4.433593-7.160156-8.816407-4.449219-15.960938-11.625-20.375-20.457031-1.503907-2.523438-4.222657-4.066407-7.160157-4.066407s-5.65625 1.542969-7.160156 4.066407c-4.441406 8.828124-11.617187 15.992187-20.457031 20.414062-2.714844 1.355469-4.429688 4.128906-4.429688 7.160156 0 3.035156 1.714844 5.808594 4.429688 7.160156zm27.578125-16.511719c2.765625 3.421876 5.886719 6.542969 9.308593 9.308594-3.421874 2.769532-6.542968 5.890625-9.308593 9.3125-2.769531-3.421875-5.890625-6.542968-9.3125-9.3125 3.421875-2.765625 6.542969-5.886718 9.3125-9.308594zm75.574219 58.148438c-8.808594-4.4375-15.953126-11.597656-20.375-20.414062-1.503907-2.523438-4.222657-4.066407-7.160157-4.066407s-5.65625 1.542969-7.160156 4.066407c-4.433594 8.824218-11.59375 15.984374-20.417969 20.414062-2.714844 1.355469-4.429687 4.128906-4.429687 7.160156 0 3.035156 1.714843 5.808594 4.429687 7.160156 8.824219 4.433594 15.984375 11.59375 20.417969 20.417969 1.351563 2.714844 4.125 4.429688 7.160156 4.429688 3.035157 0 5.804688-1.714844 7.160157-4.429688 4.429687-8.804687 11.570312-15.949219 20.375-20.375 2.714843-1.355469 4.433593-4.128906 4.433593-7.160156 0-3.035156-1.71875-5.808594-4.433593-7.160156zm-27.574219 16.472656c-2.769531-3.421875-5.890625-6.542968-9.3125-9.3125 3.421875-2.765625 6.542969-5.886718 9.3125-9.308594 2.765625 3.421876 5.886719 6.542969 9.308593 9.308594-3.421874 2.769532-6.542968 5.890625-9.308593 9.3125zm0 0" fill="url(#linear0)"/></svg>