<svg height="368pt" viewBox="-48 0 368 368" width="368pt" xmlns="http://www.w3.org/2000/svg" xmlns:xlink="http://www.w3.org/1999/xlink"><linearGradient id="a" gradientUnits="userSpaceOnUse" x1="-2.08" x2="274.08" y1="361.232" y2="85.064"><stop offset="0" stop-color="#41dfd0"/><stop offset="1" stop-color="#ee83ef"/></linearGradient><path d="m263.496094 208-23.496094 1.488281v-1.488281c0-4.417969-3.582031-8-8-8h-28.230469c-9.3125.007812-18.601562.824219-27.769531 2.449219v-6.609375c25.367188-20.425782 40.082031-51.269532 40-83.839844 0-44.183594-35.816406-80-80-80s-80 35.816406-80 80v3.527344c.019531 30.566406 12.988281 59.695312 35.695312 80.160156l4.304688 3.871094v2.890625c-9.167969-1.625-18.457031-2.441407-27.769531-2.449219h-28.230469c-4.417969 0-8 3.582031-8 8v8h-24c-4.417969 0-8 3.582031-8 8v136c0 4.417969 3.582031 8 8 8h256c4.417969 0 8-3.582031 8-8v-144c.003906-2.210938-.90625-4.328125-2.519531-5.84375-1.609375-1.515625-3.777344-2.296875-5.984375-2.15625zm-39.496094 8v112h-6.03125c-25.761719.003906-51.140625 6.242188-73.96875 18.183594v-90.183594h8c13.253906 0 24-10.746094 24-24v-13.238281c9.144531-1.820313 18.445312-2.746094 27.769531-2.761719zm-112 8h48v8c0 4.417969-3.582031 8-8 8h-32c-4.417969 0-8-3.582031-8-8zm24.121094-65.078125 16.320312 25.078125h-32.800781zm-9.464844-43.824219c-2.976562-3.863281-3.292969-9.152344-.800781-13.34375 2.101562-3.601562 5.976562-5.800781 10.144531-5.753906 4.296875-.015625 8.257812 2.3125 10.335938 6.070312 2.496093 4.238282 2.15625 9.574219-.863282 13.457032l-9.304687 14.175781zm-54.65625.429688v-3.527344c0-35.347656 28.652344-64 64-64s64 28.652344 64 64c.027344 26.167969-11.1875 51.089844-30.792969 68.425781l-23.511719-36.105469 12.90625-19.664062c6.726563-9.160156 7.226563-21.484375 1.261719-31.160156-5.265625-8.824219-14.964843-14.03125-25.230469-13.535156-10.265624.492187-19.421874 6.605468-23.816406 15.894531-4.394531 9.292969-3.308594 20.25 2.824219 28.496093l12.960937 19.921876-25.25 38.453124c-18.683593-17.355468-29.3125-41.695312-29.351562-67.199218zm40 84.472656h48v8h-48zm-64 16h20.230469c9.324219.015625 18.625.941406 27.769531 2.761719v13.238281c0 13.253906 10.746094 24 24 24h8v90.183594c-22.828125-11.941406-48.207031-18.179688-73.96875-18.183594h-6.03125zm-32 16h16v104c0 4.417969 3.582031 8 8 8h14.03125c16.070312.007812 32.027344 2.710938 47.199219 8h-85.230469zm240 120h-85.246094c15.171875-5.289062 31.128906-7.992188 47.199219-8h14.046875c4.417969 0 8-3.582031 8-8v-110.488281l16-1zm-112-336h-16v-16h16zm-92.847656 38.464844-11.320313-11.3125 11.320313-11.320313 11.3125 11.320313zm-27.152344 65.535156v16h-16v-16zm240 16h-16v-16h16zm-43.152344-81.535156-11.3125-11.3125 11.3125-11.320313 11.320313 11.320313zm0 0" fill="url(#a)"/></svg>