<svg width="481" height="480" viewBox="0 0 481 480" fill="none" xmlns="http://www.w3.org/2000/svg">
<path d="M88.0618 479.825C122.194 479.852 153.253 460.117 167.728 429.211C182.207 398.308 177.486 361.813 155.623 335.608L173.687 317.54L162.378 306.232L144.315 324.3C114.482 299.422 71.8646 297.056 39.4623 318.478C7.06008 339.899 -7.45806 380.037 3.74489 417.231C14.9478 454.424 49.2205 479.864 88.0618 479.825V479.825ZM88.0618 319.883C127.813 319.883 160.036 352.11 160.036 391.857C160.036 431.608 127.813 463.831 88.0618 463.831C48.3146 463.831 16.088 431.608 16.088 391.857C16.1349 352.125 48.3302 319.93 88.0618 319.883ZM88.0618 175.936C108.629 175.948 128.543 168.724 144.315 155.529L162.378 173.593L173.687 162.285L155.623 144.221C181.953 112.545 182.766 66.835 157.572 34.2453C132.378 1.65565 87.9368 -9.07482 50.6497 8.43052C13.3625 25.9359 -6.77081 66.9834 2.20639 107.184C11.1875 147.384 46.8737 175.959 88.0618 175.936ZM88.0618 15.9942C127.813 15.9942 160.036 48.2207 160.036 87.9679C160.036 127.719 127.813 159.942 88.0618 159.942C48.3146 159.942 16.088 127.719 16.088 87.9679C16.1349 48.2363 48.3302 16.041 88.0618 15.9942ZM327.974 239.912C328.006 192.324 290.183 153.339 242.615 151.929C195.046 150.519 154.979 187.197 152.191 234.703C149.403 282.213 184.901 323.323 232.306 327.49C234.856 327.74 237.425 327.88 240.006 327.88C242.591 327.88 245.157 327.74 247.711 327.49C293.092 323.464 327.912 285.478 327.974 239.912ZM279.992 297.751C270.257 305.596 258.429 310.406 245.981 311.586C244.005 311.753 242.025 311.886 240.006 311.886C237.991 311.886 236.008 311.753 234.036 311.586C221.587 310.406 209.76 305.596 200.021 297.751V297.22C204.949 283.1 212.993 270.265 223.559 259.675L228.702 254.532C231.822 251.408 231.822 246.348 228.702 243.224C222.454 236.98 222.45 226.851 228.698 220.603C234.946 214.359 245.071 214.359 251.319 220.603C257.562 226.851 257.562 236.98 251.315 243.224C248.195 246.348 248.195 251.408 251.315 254.532L256.457 259.675C267.02 270.265 275.064 283.1 279.992 297.22V297.751ZM267.766 248.366L267.574 248.167C275.486 234.731 272.553 217.55 260.639 207.491C248.722 197.436 231.295 197.436 219.377 207.491C207.46 217.55 204.531 234.731 212.442 248.167L212.251 248.366C201.064 259.663 192.325 273.15 186.588 287.977C160.586 259.179 162.089 214.957 189.986 187.994C217.886 161.027 262.131 161.027 290.027 187.994C317.927 214.957 319.431 259.179 293.428 287.977C287.688 273.15 278.953 259.663 267.766 248.366V248.366ZM88.0618 127.953C110.147 127.953 128.047 110.054 128.047 87.9679C128.047 65.8861 110.147 47.9825 88.0618 47.9825C65.98 47.9825 48.0764 65.8861 48.0764 87.9679C48.1037 110.042 65.9917 127.93 88.0618 127.953ZM88.0618 63.9767C101.315 63.9767 112.053 74.7188 112.053 87.9679C112.053 101.221 101.315 111.959 88.0618 111.959C74.8127 111.959 64.0705 101.221 64.0705 87.9679C64.0705 74.7188 74.8127 63.9767 88.0618 63.9767ZM56.0735 431.842H120.05C124.466 431.842 128.047 428.262 128.047 423.845V359.869C128.047 355.452 124.466 351.872 120.05 351.872H56.0735C51.6571 351.872 48.0764 355.452 48.0764 359.869V423.845C48.0764 428.262 51.6571 431.842 56.0735 431.842ZM64.0705 367.866H112.053V415.848H64.0705V367.866ZM398.894 51.981C397.355 49.6499 394.747 48.248 391.951 48.248C389.159 48.248 386.551 49.6499 385.012 51.981L353.024 107.961C351.595 110.44 351.595 113.49 353.028 115.966C354.461 118.441 357.104 119.964 359.963 119.956H423.939C426.802 119.964 429.445 118.441 430.878 115.966C432.311 113.49 432.311 110.44 430.882 107.961L398.894 51.981ZM373.743 103.962L391.951 72.1026L410.163 103.962H373.743ZM391.951 479.825C430.796 479.864 465.069 454.424 476.272 417.231C487.475 380.037 472.957 339.899 440.554 318.478C408.148 297.056 365.535 299.422 335.702 324.3L317.634 306.232L306.326 317.54L324.394 335.608C302.527 361.813 297.809 398.308 312.285 429.211C326.764 460.117 357.823 479.852 391.951 479.825V479.825ZM391.951 319.883C431.702 319.883 463.925 352.11 463.925 391.857C463.925 431.608 431.702 463.831 391.951 463.831C352.204 463.831 319.977 431.608 319.977 391.857C320.024 352.125 352.219 319.93 391.951 319.883ZM387.156 438.243C389.999 440.375 393.907 440.375 396.75 438.243L428.738 414.251C430.753 412.74 431.936 410.37 431.936 407.851V375.863C431.936 373.348 430.753 370.978 428.738 369.467L396.75 345.476C393.907 343.344 389.999 343.344 387.156 345.476L355.167 369.467C353.153 370.978 351.966 373.348 351.966 375.863V407.851C351.966 410.37 353.153 412.74 355.167 414.251L387.156 438.243ZM367.96 379.861L391.951 361.868L415.942 379.861V403.853L391.951 421.846L367.96 403.853V379.861ZM80.0647 215.921H64.0705V199.927H80.0647V215.921ZM80.0647 247.91H64.0705V231.915H80.0647V247.91ZM64.0705 263.904H80.0647V279.898H64.0705V263.904ZM439.933 215.921H423.939V199.927H439.933V215.921ZM423.939 231.915H439.933V247.91H423.939V231.915ZM423.939 263.904H439.933V279.898H423.939V263.904ZM216.015 39.9854V55.9796H200.021V39.9854H216.015ZM248.003 55.9796H232.009V39.9854H248.003V55.9796ZM279.992 39.9854V55.9796H263.998V39.9854H279.992ZM200.021 439.84V423.845H216.015V439.84H200.021ZM232.009 423.845H248.003V439.84H232.009V423.845ZM263.998 439.84V423.845H279.992V439.84H263.998ZM391.951 0C360.06 0.00390488 330.665 17.271 315.131 45.1242C299.598 72.9773 300.359 107.059 317.115 134.193L312.078 166.717C311.722 169.024 312.39 171.371 313.909 173.144C315.428 174.917 317.646 175.936 319.977 175.936C320.539 175.94 321.102 175.881 321.648 175.76L356.335 168.325C367.534 173.351 379.674 175.944 391.951 175.936C440.535 175.936 479.919 136.552 479.919 87.9679C479.919 39.388 440.535 0 391.951 0ZM391.951 159.942C381.146 159.938 370.482 157.478 360.763 152.745C359.681 152.218 358.49 151.945 357.284 151.945C356.726 151.948 356.163 152.007 355.613 152.12L329.681 157.72L333.406 133.682C333.71 131.698 333.261 129.671 332.141 128.004C313.776 100.561 316.439 64.1446 338.599 39.6652C360.759 15.1859 396.734 8.92643 425.86 24.4833C454.987 40.0362 469.794 73.4146 461.773 105.446C453.757 137.477 424.974 159.946 391.951 159.942Z" fill="url(#paint0_linear)"/>
<defs>
<linearGradient id="paint0_linear" x1="25.8861" y1="454.036" x2="454.13" y2="25.7922" gradientUnits="userSpaceOnUse">
<stop stop-color="#41DFD0"/>
<stop offset="1" stop-color="#EE83EF"/>
</linearGradient>
</defs>
</svg>
